<mxfile host="app.diagrams.net" modified="2024-03-15T15:58:05.138Z" agent="Mozilla/5.0 (X11; Ubuntu; Linux x86_64; rv:123.0) Gecko/20100101 Firefox/123.0" etag="27t9DiuEJyUY2VrBGsU5" version="22.1.21" type="github">
  <diagram id="6a731a19-8d31-9384-78a2-239565b7b9f0" name="Page-1">
    <mxGraphModel dx="2480" dy="2045" grid="1" gridSize="10" guides="1" tooltips="1" connect="1" arrows="1" fold="1" page="1" pageScale="1" pageWidth="827" pageHeight="1169" background="none" math="0" shadow="0">
      <root>
        <mxCell id="0" />
        <mxCell id="1" parent="0" />
        <mxCell id="SxDLIcwmKD-dXs4k1muR-2266" value="" style="rounded=0;whiteSpace=wrap;html=1;rotation=90;fillColor=#B3FF66;shadow=0;" vertex="1" parent="1">
          <mxGeometry x="-1565" y="-625" width="260" height="250" as="geometry" />
        </mxCell>
        <mxCell id="SxDLIcwmKD-dXs4k1muR-2258" value="Appareils IP" style="text;strokeColor=none;align=center;fillColor=none;html=1;verticalAlign=middle;whiteSpace=wrap;rounded=0;" vertex="1" parent="1">
          <mxGeometry x="-1455" y="-560" width="80" height="30" as="geometry" />
        </mxCell>
        <mxCell id="SxDLIcwmKD-dXs4k1muR-2259" value="" style="shape=mxgraph.cisco.modems_and_phones.ip_phone;sketch=0;html=1;pointerEvents=1;dashed=0;fillColor=#036897;strokeColor=#ffffff;strokeWidth=2;verticalLabelPosition=bottom;verticalAlign=top;align=center;outlineConnect=0;" vertex="1" parent="1">
          <mxGeometry x="-1520" y="-500" width="90" height="50" as="geometry" />
        </mxCell>
        <mxCell id="SxDLIcwmKD-dXs4k1muR-2262" value="" style="html=1;verticalLabelPosition=bottom;align=center;labelBackgroundColor=#ffffff;verticalAlign=top;strokeWidth=2;strokeColor=#036897;shadow=0;dashed=0;shape=mxgraph.ios7.icons.smartphone;fillColor=#FFFFFF;" vertex="1" parent="1">
          <mxGeometry x="-1390" y="-500" width="30" height="50" as="geometry" />
        </mxCell>
      </root>
    </mxGraphModel>
  </diagram>
</mxfile>
